<?xml version="1.0" encoding="utf-8"?>
<!-- Tank icon by Arthur Shlain from Usefulicons.com -->
<svg xmlns="http://www.w3.org/2000/svg" xmlns:xlink="http://www.w3.org/1999/xlink" xml:space="preserve" version="1.1" x="0px" y="0px" viewBox="0 0 100 100" width="400px" height="400px"><path d="M80,50L15,50C12.978,50,11.154,51.218,10.381,53.086C9.607,54.955,10.034,57.105,11.465,58.535L21.465,68.535C22.402,69.473,23.674,70,25,70L70,70C71.326,70,72.598,69.473,73.535,68.536L83.535,58.536C84.966,57.106,85.393,54.955,84.619,53.087C83.846,51.218,82.022,50,80,50Z" stroke="none"></path><path d="M51.667,35L50,30L15,30L15,45L55,45L53.333,40L90,40L90,35Z" stroke="none"></path></svg>