<svg version="1.2" xmlns="http://www.w3.org/2000/svg" viewBox="0 0 128 128" width="128" height="128">
	<title>DefaultProjectIcon-svg</title>
	<style>
		.s0 { fill: #363d52;stroke: #212532;stroke-width: 4 } 
		.s1 { fill: #ffffff } 
		.s2 { fill: #bf4747 } 
		.s3 { fill: #414042 } 
	</style>
	<path id="Layer" class="s0" d="m2 16c0-7.7 6.3-14 14-14h96c7.7 0 14 6.3 14 14v96c0 7.7-6.3 14-14 14h-96c-7.7 0-14-6.3-14-14z"/>
	<g id="Layer">
		<g id="Layer">
			<path id="Layer" class="s1" d="m22.9 80.3v3.3q41.1 35.8 82.2 0v-3.3z"/>
			<path id="Layer" fill-rule="evenodd" class="s2" d="m22.9 55.4q-3-3.9-5.6-8.1 3.5-6 8.4-10.9 4.3 2 8.2 4.7 4.1-3.7 8.9-6.5-0.7-5.1-0.8-10.3 6-2.8 12.4-4.2 2.7 4.3 4.7 9 4.9-0.7 9.9 0 2-4.7 4.6-9 6.5 1.4 12.5 4.2-0.1 5.2-0.9 10.3 4.9 2.8 8.9 6.5 4-2.7 8.3-4.7 4.9 4.9 8.4 10.9-2.6 4.2-5.7 8.1v24.9l-15.3 1.4q-1.2 0.1-1.5 1.4l-0.4 6.8-13.4 1-0.8-6.2q-0.2-1.1-1.5-1.5h-16.3q-1.4 0.4-1.6 1.5l-0.8 6.2-13.3-1-0.4-6.8q-0.3-1.3-1.5-1.4l-15.4-1.4zm13.7 29.4l0.5 7q0.2 1 1.4 1.3l16.3 1.1q1.3 0 1.7-1.1l1-6.6h13.1l1 6.6q0.4 1.1 1.6 1.1l16.4-1.1q1.2-0.3 1.4-1.3l0.5-7 13.5-1.2v3.9c0 27.9-82.1 27.9-82.1 0v-3.9z"/>
			<path id="Layer" class="s1" d="m61.1 72.9c0.3 3.5 5.6 3.5 5.9 0v-8.7c-0.3-3.4-5.6-3.4-5.9 0z"/>
			<path id="Layer" class="s1" d="m85.5 74.5c-5 0-9-4-9-9.1 0-5 4-9 9-9 5.1 0 9.1 4 9.1 9 0 5.1-4 9.1-9.1 9.1z"/>
			<path id="Layer" class="s1" d="m42.5 74.5c-5 0-9.1-4-9.1-9.1 0-5 4.1-9 9.1-9 5 0 9.1 4 9.1 9 0 5.1-4.1 9.1-9.1 9.1z"/>
		</g>
		<g id="Layer">
			<path id="Layer" class="s3" d="m43.3 72.1c-3.3 0-6-2.7-6-6 0-3.4 2.7-6.1 6-6.1 3.4 0 6.1 2.7 6.1 6.1 0 3.3-2.7 6-6.1 6z"/>
			<path id="Layer" class="s3" d="m84.7 72.1c-3.3 0-6-2.7-6-6 0-3.4 2.7-6.1 6-6.1 3.4 0 6.1 2.7 6.1 6.1 0 3.3-2.7 6-6.1 6z"/>
		</g>
	</g>
</svg>